<mxfile host="app.diagrams.net" modified="2024-07-09T03:18:13.813Z" agent="Mozilla/5.0 (Windows NT 10.0; Win64; x64) AppleWebKit/537.36 (KHTML, like Gecko) Chrome/126.0.0.0 Safari/537.36" etag="g_-zwqTk6qpYHXd8xZYv" version="24.6.4" type="device">
  <diagram name="Page-1" id="_CwEfmO4nRVe4BbhwAzX">
    <mxGraphModel dx="1050" dy="583" grid="1" gridSize="10" guides="1" tooltips="1" connect="1" arrows="1" fold="1" page="1" pageScale="1" pageWidth="850" pageHeight="1100" math="0" shadow="0">
      <root>
        <mxCell id="0" />
        <mxCell id="1" parent="0" />
        <mxCell id="cwmRw17QSLGLYaUBwzX1-4" style="edgeStyle=orthogonalEdgeStyle;rounded=0;orthogonalLoop=1;jettySize=auto;html=1;entryX=0;entryY=0.5;entryDx=0;entryDy=0;" edge="1" parent="1" source="cwmRw17QSLGLYaUBwzX1-1" target="cwmRw17QSLGLYaUBwzX1-2">
          <mxGeometry relative="1" as="geometry" />
        </mxCell>
        <mxCell id="cwmRw17QSLGLYaUBwzX1-1" value="&lt;b&gt;Pod&lt;/b&gt;" style="ellipse;whiteSpace=wrap;html=1;aspect=fixed;fillColor=#dae8fc;strokeColor=#6c8ebf;" vertex="1" parent="1">
          <mxGeometry x="160" y="80" width="80" height="80" as="geometry" />
        </mxCell>
        <mxCell id="cwmRw17QSLGLYaUBwzX1-2" value="&lt;b&gt;Cache&lt;/b&gt;" style="rounded=1;whiteSpace=wrap;html=1;fillColor=#f8cecc;strokeColor=#b85450;" vertex="1" parent="1">
          <mxGeometry x="340" y="90" width="120" height="60" as="geometry" />
        </mxCell>
        <mxCell id="cwmRw17QSLGLYaUBwzX1-3" value="&lt;b&gt;DB&lt;/b&gt;" style="shape=cylinder3;whiteSpace=wrap;html=1;boundedLbl=1;backgroundOutline=1;size=15;fillColor=#d5e8d4;strokeColor=#82b366;" vertex="1" parent="1">
          <mxGeometry x="560" y="80" width="60" height="80" as="geometry" />
        </mxCell>
        <mxCell id="cwmRw17QSLGLYaUBwzX1-5" style="edgeStyle=orthogonalEdgeStyle;rounded=0;orthogonalLoop=1;jettySize=auto;html=1;entryX=0;entryY=0.5;entryDx=0;entryDy=0;entryPerimeter=0;" edge="1" parent="1" source="cwmRw17QSLGLYaUBwzX1-2" target="cwmRw17QSLGLYaUBwzX1-3">
          <mxGeometry relative="1" as="geometry" />
        </mxCell>
        <mxCell id="cwmRw17QSLGLYaUBwzX1-13" style="edgeStyle=orthogonalEdgeStyle;rounded=0;orthogonalLoop=1;jettySize=auto;html=1;" edge="1" parent="1" source="cwmRw17QSLGLYaUBwzX1-6" target="cwmRw17QSLGLYaUBwzX1-7">
          <mxGeometry relative="1" as="geometry" />
        </mxCell>
        <mxCell id="cwmRw17QSLGLYaUBwzX1-6" value="" style="whiteSpace=wrap;html=1;aspect=fixed;" vertex="1" parent="1">
          <mxGeometry x="100" y="280" width="190" height="190" as="geometry" />
        </mxCell>
        <mxCell id="cwmRw17QSLGLYaUBwzX1-7" value="" style="whiteSpace=wrap;html=1;aspect=fixed;" vertex="1" parent="1">
          <mxGeometry x="490" y="280" width="190" height="190" as="geometry" />
        </mxCell>
        <mxCell id="cwmRw17QSLGLYaUBwzX1-8" value="&lt;b&gt;Pod&lt;/b&gt;" style="ellipse;whiteSpace=wrap;html=1;aspect=fixed;fillColor=#dae8fc;strokeColor=#6c8ebf;" vertex="1" parent="1">
          <mxGeometry x="160" y="330" width="80" height="80" as="geometry" />
        </mxCell>
        <mxCell id="cwmRw17QSLGLYaUBwzX1-9" value="&lt;b&gt;Cache&lt;/b&gt;" style="rounded=1;whiteSpace=wrap;html=1;fillColor=#f8cecc;strokeColor=#b85450;" vertex="1" parent="1">
          <mxGeometry x="540" y="345" width="120" height="60" as="geometry" />
        </mxCell>
        <mxCell id="cwmRw17QSLGLYaUBwzX1-12" style="edgeStyle=orthogonalEdgeStyle;rounded=0;orthogonalLoop=1;jettySize=auto;html=1;entryX=0.844;entryY=0.006;entryDx=0;entryDy=0;entryPerimeter=0;" edge="1" parent="1" source="cwmRw17QSLGLYaUBwzX1-8" target="cwmRw17QSLGLYaUBwzX1-6">
          <mxGeometry relative="1" as="geometry" />
        </mxCell>
        <mxCell id="cwmRw17QSLGLYaUBwzX1-14" value="" style="endArrow=classic;html=1;rounded=0;exitX=-0.017;exitY=0.208;exitDx=0;exitDy=0;exitPerimeter=0;entryX=0;entryY=0.5;entryDx=0;entryDy=0;" edge="1" parent="1" source="cwmRw17QSLGLYaUBwzX1-7" target="cwmRw17QSLGLYaUBwzX1-9">
          <mxGeometry width="50" height="50" relative="1" as="geometry">
            <mxPoint x="400" y="330" as="sourcePoint" />
            <mxPoint x="450" y="280" as="targetPoint" />
          </mxGeometry>
        </mxCell>
        <mxCell id="cwmRw17QSLGLYaUBwzX1-23" value="" style="group" vertex="1" connectable="0" parent="1">
          <mxGeometry x="210" y="650" width="190" height="190" as="geometry" />
        </mxCell>
        <mxCell id="cwmRw17QSLGLYaUBwzX1-15" value="" style="whiteSpace=wrap;html=1;aspect=fixed;" vertex="1" parent="cwmRw17QSLGLYaUBwzX1-23">
          <mxGeometry width="190" height="190" as="geometry" />
        </mxCell>
        <mxCell id="cwmRw17QSLGLYaUBwzX1-16" value="&lt;b&gt;Pod&lt;/b&gt;" style="ellipse;whiteSpace=wrap;html=1;aspect=fixed;fillColor=#dae8fc;strokeColor=#6c8ebf;" vertex="1" parent="cwmRw17QSLGLYaUBwzX1-23">
          <mxGeometry x="55" y="10" width="80" height="80" as="geometry" />
        </mxCell>
        <mxCell id="cwmRw17QSLGLYaUBwzX1-17" value="&lt;b&gt;Cache&lt;/b&gt;" style="rounded=1;whiteSpace=wrap;html=1;fillColor=#f8cecc;strokeColor=#b85450;" vertex="1" parent="cwmRw17QSLGLYaUBwzX1-23">
          <mxGeometry x="35" y="120" width="120" height="60" as="geometry" />
        </mxCell>
        <mxCell id="cwmRw17QSLGLYaUBwzX1-18" value="" style="endArrow=classic;html=1;rounded=0;exitX=0.5;exitY=1;exitDx=0;exitDy=0;entryX=0.5;entryY=0;entryDx=0;entryDy=0;" edge="1" parent="cwmRw17QSLGLYaUBwzX1-23" source="cwmRw17QSLGLYaUBwzX1-16" target="cwmRw17QSLGLYaUBwzX1-17">
          <mxGeometry width="50" height="50" relative="1" as="geometry">
            <mxPoint x="190" y="70" as="sourcePoint" />
            <mxPoint x="240" y="20" as="targetPoint" />
          </mxGeometry>
        </mxCell>
        <mxCell id="cwmRw17QSLGLYaUBwzX1-24" value="" style="group" vertex="1" connectable="0" parent="1">
          <mxGeometry x="495" y="650" width="190" height="190" as="geometry" />
        </mxCell>
        <mxCell id="cwmRw17QSLGLYaUBwzX1-25" value="" style="whiteSpace=wrap;html=1;aspect=fixed;" vertex="1" parent="cwmRw17QSLGLYaUBwzX1-24">
          <mxGeometry width="190" height="190" as="geometry" />
        </mxCell>
        <mxCell id="cwmRw17QSLGLYaUBwzX1-26" value="&lt;b&gt;Pod&lt;/b&gt;" style="ellipse;whiteSpace=wrap;html=1;aspect=fixed;fillColor=#dae8fc;strokeColor=#6c8ebf;" vertex="1" parent="cwmRw17QSLGLYaUBwzX1-24">
          <mxGeometry x="55" y="10" width="80" height="80" as="geometry" />
        </mxCell>
        <mxCell id="cwmRw17QSLGLYaUBwzX1-27" value="&lt;b&gt;Cache&lt;/b&gt;" style="rounded=1;whiteSpace=wrap;html=1;fillColor=#f8cecc;strokeColor=#b85450;" vertex="1" parent="cwmRw17QSLGLYaUBwzX1-24">
          <mxGeometry x="35" y="120" width="120" height="60" as="geometry" />
        </mxCell>
        <mxCell id="cwmRw17QSLGLYaUBwzX1-28" value="" style="endArrow=classic;html=1;rounded=0;exitX=0.5;exitY=1;exitDx=0;exitDy=0;entryX=0.5;entryY=0;entryDx=0;entryDy=0;" edge="1" parent="cwmRw17QSLGLYaUBwzX1-24" source="cwmRw17QSLGLYaUBwzX1-26" target="cwmRw17QSLGLYaUBwzX1-27">
          <mxGeometry width="50" height="50" relative="1" as="geometry">
            <mxPoint x="190" y="70" as="sourcePoint" />
            <mxPoint x="240" y="20" as="targetPoint" />
          </mxGeometry>
        </mxCell>
        <mxCell id="cwmRw17QSLGLYaUBwzX1-31" style="edgeStyle=orthogonalEdgeStyle;rounded=0;orthogonalLoop=1;jettySize=auto;html=1;" edge="1" parent="1" source="cwmRw17QSLGLYaUBwzX1-30" target="cwmRw17QSLGLYaUBwzX1-15">
          <mxGeometry relative="1" as="geometry" />
        </mxCell>
        <mxCell id="cwmRw17QSLGLYaUBwzX1-32" style="edgeStyle=orthogonalEdgeStyle;rounded=0;orthogonalLoop=1;jettySize=auto;html=1;" edge="1" parent="1" source="cwmRw17QSLGLYaUBwzX1-30" target="cwmRw17QSLGLYaUBwzX1-26">
          <mxGeometry relative="1" as="geometry" />
        </mxCell>
        <mxCell id="cwmRw17QSLGLYaUBwzX1-30" value="&lt;b&gt;service&lt;/b&gt;" style="ellipse;whiteSpace=wrap;html=1;aspect=fixed;" vertex="1" parent="1">
          <mxGeometry x="400" y="490" width="80" height="80" as="geometry" />
        </mxCell>
        <mxCell id="cwmRw17QSLGLYaUBwzX1-33" value="" style="whiteSpace=wrap;html=1;aspect=fixed;" vertex="1" parent="1">
          <mxGeometry x="760" y="650" width="190" height="190" as="geometry" />
        </mxCell>
        <mxCell id="cwmRw17QSLGLYaUBwzX1-34" value="" style="shape=cylinder3;whiteSpace=wrap;html=1;boundedLbl=1;backgroundOutline=1;size=15;" vertex="1" parent="1">
          <mxGeometry x="275" y="880" width="60" height="80" as="geometry" />
        </mxCell>
        <mxCell id="cwmRw17QSLGLYaUBwzX1-35" value="" style="shape=cylinder3;whiteSpace=wrap;html=1;boundedLbl=1;backgroundOutline=1;size=15;" vertex="1" parent="1">
          <mxGeometry x="555" y="880" width="60" height="80" as="geometry" />
        </mxCell>
        <mxCell id="cwmRw17QSLGLYaUBwzX1-36" style="edgeStyle=orthogonalEdgeStyle;rounded=0;orthogonalLoop=1;jettySize=auto;html=1;entryX=0.5;entryY=0;entryDx=0;entryDy=0;entryPerimeter=0;" edge="1" parent="1" source="cwmRw17QSLGLYaUBwzX1-17" target="cwmRw17QSLGLYaUBwzX1-34">
          <mxGeometry relative="1" as="geometry" />
        </mxCell>
        <mxCell id="cwmRw17QSLGLYaUBwzX1-37" style="edgeStyle=orthogonalEdgeStyle;rounded=0;orthogonalLoop=1;jettySize=auto;html=1;entryX=0.5;entryY=0;entryDx=0;entryDy=0;entryPerimeter=0;" edge="1" parent="1" source="cwmRw17QSLGLYaUBwzX1-27" target="cwmRw17QSLGLYaUBwzX1-35">
          <mxGeometry relative="1" as="geometry" />
        </mxCell>
      </root>
    </mxGraphModel>
  </diagram>
</mxfile>
